<?xml version="1.0" standalone="no"?>
<!DOCTYPE svg PUBLIC "-//W3C//DTD SVG 20010904//EN"
 "http://www.w3.org/TR/2001/REC-SVG-20010904/DTD/svg10.dtd">
<svg version="1.0" xmlns="http://www.w3.org/2000/svg"
 width="512.000000pt" height="512.000000pt" viewBox="0 0 512.000000 512.000000"
 preserveAspectRatio="xMidYMid meet">

<g transform="translate(0.000000,512.000000) scale(0.100000,-0.100000)" stroke="none">
<path d="M2419 4773 c-73 -159 -80 -172 -113 -201 -18 -15 -88 -52 -155 -82
-81 -35 -121 -58 -119 -67 2 -8 57 -38 123 -67 159 -70 185 -95 250 -248 35
-84 54 -118 66 -118 11 0 31 34 65 117 65 156 91 182 249 250 66 28 121 58
123 65 2 10 -37 32 -120 68 -160 69 -186 96 -253 253 -28 67 -55 117 -63 117
-7 0 -31 -39 -53 -87z"/>
<path d="M1237 4256 c-7 -8 -56 -112 -108 -232 -79 -183 -102 -226 -143 -271
-62 -69 -95 -88 -340 -194 -110 -48 -205 -95 -211 -103 -7 -11 -7 -21 0 -32 6
-8 110 -59 232 -113 122 -54 240 -112 263 -129 70 -52 111 -118 204 -333 90
-210 111 -244 138 -234 9 4 60 108 114 233 107 244 141 299 221 350 27 18 144
73 259 123 191 83 223 100 224 121 0 18 -44 41 -231 123 -334 144 -329 140
-473 469 -105 240 -115 255 -149 222z"/>
<path d="M2876 3768 c-17 -15 -85 -160 -199 -423 -96 -220 -191 -435 -212
-478 -81 -162 -215 -299 -375 -381 -47 -24 -265 -121 -485 -216 -220 -95 -410
-182 -422 -193 -29 -26 -31 -86 -5 -110 10 -9 216 -104 459 -211 243 -108 474
-215 513 -238 118 -71 225 -178 299 -301 13 -21 108 -235 212 -475 103 -240
197 -447 208 -459 22 -26 75 -31 103 -9 10 7 105 215 213 462 205 471 244 543
348 651 111 116 176 152 661 364 247 109 458 205 468 213 25 22 32 60 16 92
-11 25 -73 54 -474 229 -292 128 -487 219 -531 248 -39 26 -106 85 -150 130
-99 105 -128 161 -359 690 -152 349 -182 410 -205 423 -38 19 -54 18 -83 -8z"/>
</g>
</svg>
